<?xml version="1.0" ?><svg viewBox="0 0 24 24" xmlns="http://www.w3.org/2000/svg"><defs><style>.cls-1{fill:#9293a5;}.cls-2{fill:#6f7188;}.cls-3{fill:#eae2f9;}.cls-4{fill:#f94060;}.cls-5{fill:#c0c3ee;}</style></defs><g id="Calculator"><path class="cls-1" d="M5.25,2H18.47a.89.89,0,0,1,.89.89V21.11a.89.89,0,0,1-.89.89H5.25a.89.89,0,0,1-.89-.89V2.89A.89.89,0,0,1,5.25,2"/><path class="cls-2" d="M15,2V22h3.46a.89.89,0,0,0,.89-.89V2.89A.89.89,0,0,0,18.47,2Z"/><rect class="cls-3" height="9.34" width="11.44" x="6.14" y="10.83"/><rect class="cls-3" height="4.71" width="11.44" x="6.14" y="4"/><rect class="cls-4" height="9.34" width="2.57" x="15.01" y="10.83"/><rect class="cls-5" height="4.71" width="2.57" x="15.01" y="4"/><path d="M5.25,22.5H18.47a1.39,1.39,0,0,0,1.39-1.39V2.89A1.39,1.39,0,0,0,18.47,1.5H5.25A1.4,1.4,0,0,0,3.86,2.89V21.11A1.39,1.39,0,0,0,5.25,22.5ZM4.86,2.89a.4.4,0,0,1,.39-.39H18.47a.39.39,0,0,1,.39.39V21.11a.39.39,0,0,1-.39.39H5.25a.4.4,0,0,1-.39-.39Z"/><path d="M6.14,20.67H17.58a.5.5,0,0,0,.5-.5V10.83a.5.5,0,0,0-.5-.5H6.14a.5.5,0,0,0-.5.5v9.34A.5.5,0,0,0,6.14,20.67Zm9.37-9.34h1.57v3.83H15.51Zm0,4.83h1.57v3.51H15.51Zm-2.89-4.83h1.89v2.15H12.62Zm0,3.15h1.89v2H12.62Zm0,3h1.89v2.15H12.62Zm-3-6.19h2v2.15h-2Zm0,3.15h2v2h-2Zm0,3h2v2.15h-2ZM6.64,11.33H8.58v2.15H6.64Zm0,3.15H8.58v2H6.64Zm0,3H8.58v2.15H6.64Z"/><path d="M6.14,9.21H17.58a.5.5,0,0,0,.5-.5V4a.5.5,0,0,0-.5-.5H6.14a.5.5,0,0,0-.5.5V8.71A.5.5,0,0,0,6.14,9.21Zm.5-4.71H17.08V8.21H6.64Z"/><path d="M15.65,6.77h-.51a.5.5,0,0,0-.5.5.5.5,0,0,0,.5.5h.51a.5.5,0,0,0,.5-.5A.51.51,0,0,0,15.65,6.77Z"/></g></svg>